<svg width="24" height="24" viewBox="0 0 24 24" fill="none" xmlns="http://www.w3.org/2000/svg">
<path fill-rule="evenodd" clip-rule="evenodd" d="M5 1C3.93913 1 2.92172 1.42143 2.17157 2.17157C1.42143 2.92172 1 3.93913 1 5V19C1 20.0609 1.42143 21.0783 2.17157 21.8284C2.92172 22.5786 3.93913 23 5 23H19C20.0609 23 21.0783 22.5786 21.8284 21.8284C22.5786 21.0783 23 20.0609 23 19V5C23 3.93913 22.5786 2.92172 21.8284 2.17157C21.0783 1.42143 20.0609 1 19 1H5ZM15.924 4.864C14.789 3.694 12.915 3.724 11.79 4.884C11.188 5.504 11.089 6.268 11.007 6.897L11 6.938C10.913 7.608 10.833 8.12 10.417 8.523C10.059 8.864 9.617 8.923 9.027 8.959L8.909 8.966C8.373 8.997 7.716 9.036 7.14 9.433C5.627 10.476 5.431 12.716 6.7 14.025C7.99 15.355 10.197 15.091 11.182 13.571C11.531 13.033 11.597 12.422 11.652 11.916L11.671 11.742C11.737 11.176 11.828 10.738 12.194 10.386L12.196 10.383C12.612 9.975 13.121 9.935 13.807 9.881C14.462 9.831 15.263 9.764 15.923 9.083C17.043 7.928 17.044 6.019 15.924 4.864ZM14.224 14.176C13.4517 14.176 12.711 14.4828 12.1649 15.0289C11.6188 15.575 11.312 16.3157 11.312 17.088C11.312 17.8603 11.6188 18.601 12.1649 19.1471C12.711 19.6932 13.4517 20 14.224 20C14.9963 20 15.737 19.6932 16.2831 19.1471C16.8292 18.601 17.136 17.8603 17.136 17.088C17.136 16.3157 16.8292 15.575 16.2831 15.0289C15.737 14.4828 14.9963 14.176 14.224 14.176Z" fill="#525252"/>
</svg>
